<svg version="1.1" id="Layer_1" xmlns="http://www.w3.org/2000/svg" xmlns:xlink="http://www.w3.org/1999/xlink" x="0px" y="0px"
	 width="100%" viewBox="0 0 60 60" enable-background="new 0 0 60 60" xml:space="preserve">
<path fill="#3772A4" opacity="1.000000" stroke="none" 
	d="
M1.000000,42.000000 
	C1.000000,41.250000 1.000000,40.500000 1.242645,39.147972 
	C2.559501,37.546227 3.716705,36.621178 4.694278,35.534527 
	C10.483255,29.099617 16.230560,22.627218 22.417015,16.100101 
	C25.227993,15.632828 27.613834,15.232879 30.070480,14.507460 
	C34.130932,10.441101 38.120575,6.700212 42.420544,3.113751 
	C43.447708,4.391310 44.164551,5.514442 44.517250,6.799282 
	C37.268585,13.648282 30.353481,20.304882 23.554241,27.077793 
	C22.974428,27.655361 23.166357,29.007673 22.998840,30.209681 
	C22.997911,30.419285 22.996494,30.838493 22.661417,31.007242 
	C20.496639,32.457855 18.666937,33.739723 16.678040,35.164848 
	C16.323549,35.521183 16.171329,35.761539 16.075031,36.075699 
	C16.087881,36.122215 16.000856,36.163960 15.781887,36.115044 
	C15.562917,36.066128 15.114752,36.043537 14.768566,36.090820 
	C11.246149,38.776787 8.069920,41.415474 4.581683,43.894783 
	C3.179785,43.156940 2.089893,42.578468 1.000000,42.000000 
z"/>
<path fill="#000000" opacity="1.000000" stroke="none" 
	d="
M61.000000,41.000000 
	C61.000000,47.590694 61.000000,54.181385 61.000000,61.000000 
	C54.981487,61.000000 48.960117,61.000000 42.137978,60.723995 
	C46.621822,57.404129 46.505562,52.547203 45.702503,47.166973 
	C44.468582,47.166973 43.233620,47.166973 41.559124,47.094086 
	C38.746109,47.069756 36.372620,47.118313 33.634842,47.093578 
	C32.529636,46.977131 31.788721,46.933975 31.221222,46.531765 
	C33.262615,46.059750 35.130596,45.946789 37.443573,45.908424 
	C40.591461,45.933102 43.294353,45.883175 46.432060,45.907753 
	C51.918251,46.413818 56.538601,45.774944 59.595776,41.024021 
	C59.736485,40.805359 60.517307,40.998600 61.000000,41.000000 
z"/>
<path fill="#000000" opacity="1.000000" stroke="none" 
	d="
M44.881390,6.637574 
	C44.164551,5.514442 43.447708,4.391310 42.255760,2.743769 
	C41.853767,1.812907 41.926884,1.406453 42.000000,1.000000 
	C48.261269,1.000000 54.522533,1.000000 61.000000,1.000000 
	C61.000000,7.352347 61.000000,13.707130 60.752960,20.866505 
	C60.019257,21.410578 59.532589,21.150061 59.021484,20.552118 
	C57.664486,18.865698 56.331924,17.516701 54.551743,16.093872 
	C51.763603,16.020039 49.423092,16.020039 46.886078,16.020039 
	C46.886078,19.471603 46.886078,22.215130 46.704670,24.972496 
	C46.523262,24.986338 46.159767,25.002792 46.096886,24.552065 
	C45.966850,21.065687 45.899700,18.030037 45.893181,14.576616 
	C45.596336,11.651754 45.238861,9.144664 44.881390,6.637574 
z"/>
<path fill="#000000" opacity="1.000000" stroke="none" 
	d="
M29.999676,14.832928 
	C27.613834,15.232879 25.227993,15.632828 21.955095,16.037685 
	C13.933211,15.891713 6.511789,14.580669 1.000000,21.000000 
	C1.000000,14.411451 1.000000,7.822903 1.000000,1.000000 
	C6.684732,1.000000 12.372658,1.000000 18.772575,1.331547 
	C18.724653,2.537749 17.922476,3.379574 17.212753,4.293216 
	C15.087692,7.028856 15.559422,13.128388 18.437584,14.899788 
	C21.250340,14.921974 23.622923,14.876881 26.392681,14.897861 
	C27.859795,14.920266 28.929735,14.876597 29.999676,14.832928 
z"/>
<path fill="#000000" opacity="1.000000" stroke="none" 
	d="
M15.114752,36.043537 
	C15.114752,36.043537 15.562917,36.066128 15.780727,36.561695 
	C16.054571,40.370697 16.110605,43.684128 16.091682,47.433418 
	C16.328337,50.614967 16.639948,53.360664 17.056263,56.393223 
	C18.070833,57.469147 18.980701,58.258213 20.061428,59.424301 
	C20.154858,60.200886 20.077429,60.600445 20.000000,61.000000 
	C13.740767,61.000000 7.481534,61.000000 1.000000,61.000000 
	C1.000000,54.981396 1.000000,48.960072 1.000000,42.469376 
	C2.089893,42.578468 3.179785,43.156940 4.778518,44.244705 
	C8.338689,45.290527 11.390018,45.827057 15.114752,46.481998 
	C15.114752,42.259369 15.114752,39.151455 15.114752,36.043537 
z"/>
<path fill="#3777AB" opacity="1.000000" stroke="none" 
	d="
M1.000000,21.467939 
	C6.511789,14.580669 13.933211,15.891713 21.529961,16.105011 
	C16.230560,22.627218 10.483255,29.099617 4.694278,35.534527 
	C3.716705,36.621178 2.559501,37.546227 1.242645,38.772972 
	C1.000000,33.311958 1.000000,27.623919 1.000000,21.467939 
z"/>
<path fill="#FFD03F" opacity="1.000000" stroke="none" 
	d="
M59.045925,20.889542 
	C59.532589,21.150061 60.019257,21.410578 60.752960,21.335548 
	C61.000000,23.370558 61.000000,25.741116 60.664227,28.621569 
	C56.323849,33.150513 52.230629,37.087173 48.369667,41.239777 
	C47.239456,42.455368 46.769714,44.285034 45.997250,45.833248 
	C43.294353,45.883175 40.591461,45.933102 37.514435,45.582355 
	C38.389389,43.658585 39.572311,42.075054 40.898907,40.622757 
	C46.925785,34.024807 52.993137,27.463825 59.045925,20.889542 
z"/>
<path fill="#FFCC3B" opacity="1.000000" stroke="none" 
	d="
M46.432060,45.907753 
	C46.769714,44.285034 47.239456,42.455368 48.369667,41.239777 
	C52.230629,37.087173 56.323849,33.150513 60.664227,29.065731 
	C61.000000,32.692909 61.000000,36.385818 61.000000,40.539364 
	C60.517307,40.998600 59.736485,40.805359 59.595776,41.024021 
	C56.538601,45.774944 51.918251,46.413818 46.432060,45.907753 
z"/>
<path fill="#FFCB3A" opacity="1.000000" stroke="none" 
	d="
M41.998653,47.166973 
	C43.233620,47.166973 44.468582,47.166973 45.702503,47.166973 
	C46.505562,52.547203 46.621822,57.404129 41.668602,60.723995 
	C39.299988,61.000000 36.599972,61.000000 33.508972,60.651466 
	C34.137348,58.640564 35.089931,56.932430 36.190952,55.326023 
	C38.077972,52.572838 40.057796,49.883259 41.998653,47.166973 
z"/>
<path fill="#FFCF3E" opacity="1.000000" stroke="none" 
	d="
M41.559124,47.094086 
	C40.057796,49.883259 38.077972,52.572838 36.190952,55.326023 
	C35.089931,56.932430 34.137348,58.640564 33.058990,60.651466 
	C30.629442,61.000000 28.258884,61.000000 25.506474,60.661980 
	C26.453144,58.679234 27.919764,57.125542 29.077942,55.368530 
	C30.831072,52.708958 32.369488,49.907845 33.999134,47.166870 
	C36.372620,47.118313 38.746109,47.069756 41.559124,47.094086 
z"/>
<path fill="#3776AA" opacity="1.000000" stroke="none" 
	d="
M25.995508,14.831787 
	C23.622923,14.876881 21.250340,14.921974 18.511314,14.569048 
	C19.389935,12.418623 20.525696,10.574297 21.904715,8.934547 
	C24.187342,6.220343 26.626686,3.637937 29.000000,1.000000 
	C31.041666,1.000000 33.083332,1.000000 35.500202,1.337810 
	C34.072655,3.794717 32.165833,5.835557 30.496807,8.055207 
	C28.869841,10.218923 27.486057,12.565495 25.995508,14.831787 
z"/>
<path fill="#3779AF" opacity="1.000000" stroke="none" 
	d="
M28.545891,1.000000 
	C26.626686,3.637937 24.187342,6.220343 21.904715,8.934547 
	C20.525696,10.574297 19.389935,12.418623 18.071144,14.501768 
	C15.559422,13.128388 15.087692,7.028856 17.212753,4.293216 
	C17.922476,3.379574 18.724653,2.537749 19.242283,1.331547 
	C22.030594,1.000000 25.061186,1.000000 28.545891,1.000000 
z"/>
<path fill="#3774A7" opacity="1.000000" stroke="none" 
	d="
M26.392681,14.897861 
	C27.486057,12.565495 28.869841,10.218923 30.496807,8.055207 
	C32.165833,5.835557 34.072655,3.794717 35.937702,1.337810 
	C37.714359,1.000000 39.428715,1.000000 41.571537,1.000000 
	C41.926884,1.406453 41.853767,1.812907 41.945435,2.589342 
	C38.120575,6.700212 34.130932,10.441101 30.070480,14.507459 
	C28.929735,14.876597 27.859795,14.920266 26.392681,14.897861 
z"/>
<path fill="#FFD242" opacity="1.000000" stroke="none" 
	d="
M33.634842,47.093578 
	C32.369488,49.907845 30.831072,52.708958 29.077942,55.368530 
	C27.919764,57.125542 26.453144,58.679234 25.062309,60.661980 
	C23.611111,61.000000 22.222221,61.000000 20.416666,61.000000 
	C20.077429,60.600445 20.154858,60.200886 20.357742,59.258026 
	C24.004734,54.773422 27.526270,50.832119 31.047806,46.890820 
	C31.788721,46.933975 32.529636,46.977131 33.634842,47.093578 
z"/>
<path fill="#376F9F" opacity="1.000000" stroke="none" 
	d="
M44.517250,6.799282 
	C45.238861,9.144664 45.596336,11.651754 45.567959,14.648676 
	C40.119675,20.372807 35.057243,25.607105 29.596556,30.908873 
	C28.125065,30.932455 27.051830,30.888569 25.724560,30.654999 
	C24.646940,30.310238 23.823357,30.155159 22.999771,30.000076 
	C23.166357,29.007673 22.974428,27.655361 23.554241,27.077793 
	C30.353481,20.304882 37.268585,13.648282 44.517250,6.799282 
z"/>
<path fill="#FFDC4D" opacity="1.000000" stroke="none" 
	d="
M25.978596,30.844681 
	C27.051830,30.888569 28.125065,30.932455 29.928511,30.978094 
	C31.105265,31.042709 31.551807,31.105572 31.927849,31.494152 
	C26.627111,36.879101 21.396873,41.938332 16.166637,46.997562 
	C16.110605,43.684128 16.054571,40.370697 15.999697,36.610611 
	C16.000856,36.163960 16.087881,36.122215 16.316645,36.008347 
	C16.642683,35.603516 16.739960,35.312550 16.837234,35.021587 
	C18.666937,33.739723 20.496639,32.457855 23.030968,31.076080 
	C24.483263,30.932339 25.230930,30.888510 25.978596,30.844681 
z"/>
<path fill="#376F9F" opacity="1.000000" stroke="none" 
	d="
M14.768566,36.090820 
	C15.114752,39.151455 15.114752,42.259369 15.114752,46.481998 
	C11.390018,45.827057 8.338689,45.290527 5.090525,44.404079 
	C8.069920,41.415474 11.246149,38.776787 14.768566,36.090820 
z"/>
<path fill="#366B99" opacity="1.000000" stroke="none" 
	d="
M25.724560,30.655001 
	C25.230930,30.888510 24.483263,30.932339 23.366047,30.907330 
	C22.996494,30.838493 22.997911,30.419285 22.998840,30.209682 
	C23.823357,30.155159 24.646940,30.310238 25.724560,30.655001 
z"/>
<path fill="#376F9F" opacity="1.000000" stroke="none" 
	d="
M16.678040,35.164848 
	C16.739960,35.312550 16.642683,35.603516 16.303795,35.961830 
	C16.171329,35.761539 16.323549,35.521183 16.678040,35.164848 
z"/>
<path fill="#FFD444" opacity="1.000000" stroke="none" 
	d="
M31.221222,46.531765 
	C27.526270,50.832119 24.004734,54.773422 20.186882,58.880997 
	C18.980701,58.258213 18.070833,57.469147 17.274456,56.136955 
	C22.581135,50.549511 27.967419,45.684444 32.886406,40.385578 
	C35.361942,37.718864 36.989002,34.264500 39.364643,31.097116 
	C41.872948,29.019545 44.016357,27.011169 46.159767,25.002792 
	C46.159767,25.002792 46.523262,24.986338 47.051083,24.923920 
	C50.052391,21.963568 52.525879,19.065634 54.999367,16.167702 
	C56.331924,17.516701 57.664486,18.865698 59.021484,20.552120 
	C52.993137,27.463825 46.925785,34.024807 40.898907,40.622757 
	C39.572311,42.075054 38.389389,43.658585 37.069443,45.507751 
	C35.130596,45.946789 33.262615,46.059750 31.221222,46.531765 
z"/>
<path fill="#366B99" opacity="1.000000" stroke="none" 
	d="
M46.096886,24.552067 
	C44.016357,27.011169 41.872948,29.019545 38.930992,31.029411 
	C36.087749,31.076748 34.043049,31.122591 31.998350,31.168434 
	C31.551807,31.105572 31.105265,31.042709 30.326767,30.910625 
	C35.057243,25.607105 40.119675,20.372807 45.507332,15.066447 
	C45.899700,18.030037 45.966850,21.065687 46.096886,24.552067 
z"/>
<path fill="#FFD647" opacity="1.000000" stroke="none" 
	d="
M54.551743,16.093868 
	C52.525879,19.065634 50.052391,21.963568 47.232491,24.910080 
	C46.886078,22.215130 46.886078,19.471603 46.886078,16.020039 
	C49.423092,16.020039 51.763603,16.020039 54.551743,16.093868 
z"/>
<path fill="#FFD848" opacity="1.000000" stroke="none" 
	d="
M31.927849,31.494152 
	C34.043049,31.122591 36.087749,31.076748 38.566101,31.098608 
	C36.989002,34.264500 35.361942,37.718864 32.886406,40.385578 
	C27.967419,45.684444 22.581135,50.549511 17.169754,55.850098 
	C16.639948,53.360664 16.328337,50.614967 16.091681,47.433418 
	C21.396873,41.938332 26.627111,36.879101 31.927849,31.494152 
z"/>
</svg>